<svg width="512" height="512" viewBox="0 0 512 512" fill="none" xmlns="http://www.w3.org/2000/svg">
<g clip-path="url(#clip0_11_5)">
<rect width="512" height="512" rx="153.6" fill="white"/>
<mask id="mask0_11_5" style="mask-type:alpha" maskUnits="userSpaceOnUse" x="0" y="0" width="512" height="512">
<rect width="512" height="512" rx="153.6" fill="white"/>
</mask>
<g mask="url(#mask0_11_5)">
<path d="M265.724 70.6234L232.806 61.3032L207.82 131.898L232.806 135.864L265.724 70.6234Z" fill="#B6CDDD"/>
<path d="M104.245 535.692L91.3668 516.57L178.085 456.417L197.597 467.734L104.245 535.692Z" fill="#B6CDDD"/>
<path d="M-78.7258 407.723L69.6221 285.344C70.7264 263.761 71.6619 250.34 74.6221 221.01C63.0321 177.215 59.6137 163.292 59.2888 158.344L61.6221 145.344C61.8933 129.974 62.4541 121.612 63.9555 107.01C63.9555 107.01 74.9555 74.0104 79.2888 65.0104C83.6221 56.0104 93.6222 47.4751 103.622 48.0761C113.622 48.6771 121.956 51.0104 127.289 59.6771C127.289 59.6771 138.956 27.6771 143.289 23.0104C147.622 18.3437 158.289 8.01042 173.956 12.0104C189.622 16.0104 194.289 28.6771 194.289 28.6771C194.289 28.6771 204.956 1.67708 230.956 10.6771C256.956 19.6771 256.956 44.3438 248.956 63.3438C240.956 82.3438 230.956 88.6771 230.956 88.6771C229.324 104.969 226.993 113.667 217.956 127.677L232.956 124.344L260.955 48.6771L490.956 124.344L483.622 148.677L500.956 154.677L364.956 530.677L176.622 466.01L37.5747 565.957L-78.7258 407.723Z" fill="#001027"/>
<path d="M181.609 146.694C179.832 141.165 178.689 138.046 176.367 132.442C180.754 128.011 183 120.763 186.196 89.6863C191.425 81.3205 198.035 68.1468 204.063 56.1341L204.065 56.129C207.479 49.3255 210.706 42.8947 213.389 37.9211C217.685 32.4443 220.066 29.8896 224.037 30.5495C230.113 32.6566 232.093 35.1109 232.228 42.3441C227.635 61.3623 222.626 69.3905 206.509 75.9259C210.373 84.1837 211.156 87.2845 210.604 90.6692C204.371 111.632 198.349 118.388 184.394 124.087C192.698 125.91 195.209 129.185 196.844 138.011C191.583 140.964 188.293 142.836 181.609 146.694Z" fill="white"/>
<path d="M94.6221 295.01C98.1469 318.052 120.856 351.124 149.458 382.377C164.262 375.042 170.934 369.994 178.821 356.612C180.579 368.169 179.744 375.104 178.395 386.316C178.343 386.747 178.291 387.184 178.237 387.627C198.996 388.806 209.341 386.524 226.058 377.369C241.558 366.297 248.859 358.218 259.002 339.932C264.243 334.816 270.084 332.384 285.672 327.542L313.382 296.818L314.659 223.377C302.208 224.968 296.078 228.845 291.7 235.274C287.322 241.703 284.336 251.455 281.964 264.558C280.128 277.852 282.369 284.431 290.699 295.007C280.032 289.357 274.425 288.053 265.242 289.766C255.267 293.596 252.504 298.438 248.27 307.736C240.567 292.804 234.772 286.381 220.567 280.032C213.114 273.767 209.993 269.599 204.594 262.062C199.779 251.053 199.046 245.011 199.602 234.359C186.943 240.394 180.542 245.402 172.647 262.561C184.608 275.687 189.146 283.649 193.113 299C196.182 321.064 193.716 330.405 184.627 343.675C186.664 313.14 183.423 299.151 170.151 279.533C153.132 260.071 141.778 252.359 114.744 250.582C114.744 250.582 133.222 242.566 135.555 242.469C137.888 242.371 156.184 241.437 159.919 240.349C163.653 239.26 175.515 234.788 176.779 221.176C178.043 207.565 170.848 194.536 167.445 193.953C164.042 193.369 154.677 195.674 154.677 195.674C154.677 195.674 158.25 191.366 161.223 188.314C164.196 185.262 166.862 178.883 165.409 168.719L160.168 146.007C157.123 135.811 152.962 132.542 142.75 129.492C143.429 128.969 144.397 128.36 145.54 127.64L145.541 127.64C149.511 125.14 155.589 121.315 158.986 115.2C163.362 107.324 166.199 92.5536 165.409 88.1042C164.82 84.0872 157.723 81.2676 157.723 81.2676C172.387 74.4176 177.415 62.0217 178.973 52.9867C180.531 43.9518 178.038 35.8515 171.083 33.6929C164.128 31.5342 160.436 35.6957 158.671 39.4358C158.063 40.7243 156.418 45.007 154.157 50.894C149.855 62.0958 143.321 79.106 137.456 92.3471C136.612 106.595 134.869 111.944 130.468 118.803C130.468 118.803 131.583 126.043 131.289 133.677C130.994 141.311 128.955 151.677 128.955 151.677C128.955 151.677 130.994 154.396 133.954 161.406C136.914 168.416 143.289 185.344 143.289 185.344C143.289 185.344 148.597 202.375 138.955 210.01C129.314 217.646 118.289 216.01 118.289 216.01C118.289 216.01 128.502 207.827 123.289 193.677C123.047 192.982 122.724 192.008 122.333 190.829C119.585 182.541 113.48 164.126 108.622 161.344C103.574 158.452 96.1213 158.615 94.8196 158.668C96.5037 158.241 104.186 150.32 107.161 143.18C110.276 135.703 111.211 122.618 109.955 119.344C108.7 116.069 100.622 113.344 100.622 113.344C111.771 104.418 117.731 99.1733 116.955 80.3437C116.955 80.3437 114.994 70.1343 107.622 69.3437C100.25 68.5531 98.2887 76.3437 98.2887 76.3437C93.2608 94.0447 90.5667 102.404 85.9554 114.677C85.0003 143.019 84.356 153.823 82.9554 161.344C85.3168 173.179 88.9487 185.693 93.4702 201.271L93.4705 201.272C94.9819 206.479 96.5927 212.029 98.2887 218.01C95.5981 247.87 92.8006 283.103 94.6221 295.01Z" fill="white"/>
<path d="M217.619 153.459L184.348 173.127C190.268 186.389 191.216 193.652 190.047 206.397C216.39 202.306 223.086 194.022 223.317 170.554C240.368 192.079 250.621 190.438 269.638 173.127C265.989 186.434 264.508 194.345 269.822 202.537C275.136 210.729 284.346 218.502 293.387 212.926C302.428 207.349 311.731 206.949 311.731 206.949C307.122 203.661 304.624 201.189 300.335 195.552L288.203 176.619C283.213 167.938 279.803 164.327 272.028 161.363C263.273 157.956 258.481 156.27 250.154 153.643C244.068 151.039 234.735 148.292 232.466 148.287C230.197 148.282 223.363 150.361 217.619 153.459Z" fill="white"/>
<path d="M73.9554 310.01L60.2888 321.01C60.2888 321.01 68.2806 341.677 94.6221 381.677C114.378 411.677 153.622 456.677 153.622 456.677L172.289 442.344C172.289 442.344 142.289 410.677 115.289 376.677C88.2888 342.677 73.9554 310.01 73.9554 310.01Z" fill="white"/>
<path d="M246.832 205.36C222.058 222.388 223.194 252.487 241.153 266.24C247.365 270.339 251.653 270.858 260.854 268.37C260.613 253.638 262.17 243.221 269.907 232.339C258.892 229.764 251.392 218.835 246.832 205.36Z" fill="white"/>
<path d="M37.0544 356.324C41.6937 356.324 45.4546 352.563 45.4546 347.924C45.4546 343.285 41.6937 339.524 37.0544 339.524C32.4151 339.524 28.6542 343.285 28.6542 347.924C28.6542 352.563 32.4151 356.324 37.0544 356.324Z" fill="white"/>
<path d="M24.5727 367.715C24.5727 372.355 20.8118 376.115 16.1725 376.115C11.5332 376.115 7.77228 372.355 7.77228 367.715C7.77228 363.076 11.5332 359.315 16.1725 359.315C20.8118 359.315 24.5727 363.076 24.5727 367.715Z" fill="white"/>
<path d="M61.8173 374.728C61.8173 379.367 58.0564 383.128 53.4171 383.128C48.7778 383.128 45.0169 379.367 45.0169 374.728C45.0169 370.088 48.7778 366.328 53.4171 366.328C58.0564 366.328 61.8173 370.088 61.8173 374.728Z" fill="white"/>
<path d="M41.247 394.675C41.247 399.314 37.4861 403.075 32.8468 403.075C28.2075 403.075 24.4466 399.314 24.4466 394.675C24.4466 390.035 28.2075 386.274 32.8468 386.274C37.4861 386.274 41.247 390.035 41.247 394.675Z" fill="white"/>
<path d="M273.888 79.5024L255.316 131.174L282.531 141.839C295.403 146.069 298.529 150.666 313.607 174.571C322.283 187.947 327.454 193.646 337.144 201.05L332.363 212.083C332.363 212.083 336.96 217.416 337.144 218.887C337.328 220.358 336.96 247.205 336.96 247.205L388.08 265.226L379.622 287.476L336.777 273.133L336.409 294.831L372.45 307.887L364.175 330.137L327.398 317.817L313.423 333.999L357.372 350.549L348.913 372.983L288.415 352.204L277.014 356.617L270.762 368.202L341.925 393.21L334.202 414.908L252.006 387.693L234.537 401.485L327.582 434.952L319.675 456.834L209.712 420.241L193.714 433.113L205.667 448.927L340.087 495.634L464.944 142.575L273.888 79.5024Z" fill="white"/>
<path d="M139.767 440.383L156.441 425.08C165.934 435.636 172.289 442.344 172.289 442.344L153.622 456.677C153.622 456.677 147.919 450.138 139.767 440.383Z" fill="#B6CDDD"/>
<path d="M266.952 231.419C255.187 231.158 235.576 236.899 238.686 264.152C223.145 249.63 223.247 221.571 246.833 205.36C250.972 217.593 257.535 227.729 266.952 231.419Z" fill="#B6CDDD"/>
<path d="M207.758 78.6588C198.922 94.0227 193.406 104.373 183.22 124.286L184.915 124.205C184.744 124.165 184.57 124.126 184.394 124.087C198.349 118.388 204.371 111.632 210.604 90.6692C211.09 87.6864 210.54 84.9242 207.758 78.6588Z" fill="#B6CDDD"/>
<path d="M189.411 125.694C193.845 127.787 195.599 131.288 196.844 138.011C191.818 140.832 188.59 142.667 182.483 146.189L182.624 145.716C187.344 138.06 189.043 133.414 189.411 125.694Z" fill="#B6CDDD"/>
<path d="M190.47 199.375C202.217 195.754 209.492 192.111 222.547 181.437C220.178 196.766 211.828 203.015 190.047 206.397C190.278 203.871 190.427 201.56 190.47 199.375Z" fill="#B6CDDD"/>
<path d="M265.703 176.584C249.72 182.55 242.046 181.847 229.661 177.795C242.077 190.274 251.449 188.597 265.703 176.584Z" fill="#B6CDDD"/>
<path d="M221.667 280.532L186.056 280.264C182.909 274.597 178.742 269.249 172.647 262.561C180.542 245.402 186.944 240.394 199.602 234.359C199.046 245.011 199.779 251.053 204.594 262.062C209.993 269.599 213.114 273.767 220.567 280.032C220.939 280.199 221.306 280.365 221.667 280.532Z" fill="#B6CDDD"/>
<path d="M136.843 242.408C141.695 242.166 156.59 241.319 159.919 240.349C163.653 239.26 175.515 234.788 176.779 221.176C177.945 208.623 171.916 196.565 168.302 194.309C171.575 226.765 159.517 232.624 137.085 242.153L136.843 242.408Z" fill="#B6CDDD"/>
<path d="M299.061 312.696L285.672 327.542C270.085 332.384 264.243 334.816 259.002 339.932C248.859 358.218 241.558 366.297 226.058 377.369C209.341 386.524 198.996 388.806 178.237 387.627C178.291 387.184 178.343 386.747 178.395 386.316C179.129 380.212 179.711 375.376 179.806 370.371C206.87 376.859 247.58 353.895 253.046 329.608C257.419 329.029 259.614 329.015 263.876 328.987C264.255 328.985 264.65 328.982 265.065 328.979C266.935 325.721 267.917 324.54 269.62 322.906C278.652 318.518 286.402 316.308 295.988 313.575C296.991 313.289 298.015 312.997 299.061 312.696Z" fill="#B6CDDD"/>
<path d="M175.388 362.012C168.794 371.529 162.084 376.121 149.458 382.377C144.078 376.498 138.907 370.555 134.032 364.627C146.986 370.091 156.275 370.295 175.388 362.012Z" fill="#B6CDDD"/>
<path d="M336.873 218.146L344.796 216.561L348.561 229.038L348.748 251.361L336.961 247.205C336.961 247.205 337.328 220.358 337.144 218.887C337.121 218.697 337.024 218.444 336.873 218.146Z" fill="#B6CDDD"/>
<path d="M348.965 277.213L336.777 273.133L336.409 294.831L349.152 299.448L348.965 277.213Z" fill="#B6CDDD"/>
<path d="M344.638 323.592L327.399 317.817L313.423 333.999L329.208 339.943L344.638 323.592Z" fill="#B6CDDD"/>
<path d="M314.622 361.205L288.415 352.204L277.014 356.617L270.762 368.202L296.08 377.099L314.622 361.205Z" fill="#B6CDDD"/>
<path d="M281.206 397.361L252.006 387.693L234.537 401.485L262.783 411.644L281.206 397.361Z" fill="#B6CDDD"/>
<path d="M239.296 430.086L210.031 450.443L205.667 448.927L193.714 433.113L209.712 420.241L239.296 430.086Z" fill="#B6CDDD"/>
<path d="M337.191 220.683C337.183 219.721 337.169 219.082 337.144 218.887C336.961 217.416 332.363 212.083 332.363 212.083L337.144 201.05C327.454 193.646 322.283 187.947 313.607 174.571C307.839 165.426 303.82 159.107 300.335 154.553L311.961 120.981L334.947 145.241L374.147 233.817L337.191 220.683Z" fill="#8E1F1F"/>
<path d="M311.961 120.981C336.03 156.052 342.905 175.905 333.459 211.939L374.147 233.817C374.147 233.817 373.656 197.945 359.066 169.062C344.476 140.179 311.961 120.981 311.961 120.981Z" fill="#C63E3E"/>
</g>
</g>
<defs>
<clipPath id="clip0_11_5">
<rect width="512" height="512" rx="153.6" fill="white"/>
</clipPath>
</defs>
</svg>
